<?xml version="1.0" standalone="no"?>
<!DOCTYPE svg PUBLIC "-//W3C//DTD SVG 20010904//EN"
 "http://www.w3.org/TR/2001/REC-SVG-20010904/DTD/svg10.dtd">
<svg version="1.0" xmlns="http://www.w3.org/2000/svg"
 width="386.000000pt" height="386.000000pt" viewBox="0 0 386.000000 386.000000"
 preserveAspectRatio="xMidYMid meet">
<metadata>
Created by potrace 1.14, written by Peter Selinger 2001-2017
</metadata>
<g transform="translate(0.000000,386.000000) scale(0.100000,-0.100000)"
fill="#000000" stroke="none">
<path d="M0 1930 l0 -1930 1930 0 1930 0 0 1930 0 1930 -146 0 c-94 0 -143 -4
-139 -10 3 -5 2 -10 -4 -10 -5 0 -13 4 -16 10 -8 13 -2045 14 -2045 1 0 -17
-30 -40 -44 -35 -8 3 -12 14 -9 25 5 19 -8 19 -726 19 l-731 0 0 -1930z m1041
1897 c-1 -12 -15 -9 -19 4 -3 6 1 10 8 8 6 -3 11 -8 11 -12z m524 3 c3 -5 1
-10 -4 -10 -6 0 -11 5 -11 10 0 6 2 10 4 10 3 0 8 -4 11 -10z m965 6 c0 -3 -4
-8 -10 -11 -5 -3 -10 -1 -10 4 0 6 5 11 10 11 6 0 10 -2 10 -4z m-480 -24 c0
-12 -22 -32 -36 -32 -7 0 -10 8 -7 20 5 19 43 29 43 12z m-780 -36 c0 -15 -24
-28 -34 -19 -13 14 -5 33 14 33 11 0 20 -6 20 -14z m1468 -79 c3 -12 -3 -17
-22 -17 -25 0 -35 18 -19 34 12 12 38 2 41 -17z m-539 -44 c-8 -9 -16 -10 -22
-4 -13 13 0 31 19 24 11 -4 12 -8 3 -20z m-2099 -3 c0 -5 -5 -10 -11 -10 -5 0
-7 5 -4 10 3 6 8 10 11 10 2 0 4 -4 4 -10z m1085 -20 c3 -5 1 -10 -4 -10 -6 0
-11 5 -11 10 0 6 2 10 4 10 3 0 8 -4 11 -10z m745 0 c0 -5 -5 -10 -11 -10 -5
0 -7 5 -4 10 3 6 8 10 11 10 2 0 4 -4 4 -10z m-1530 -70 c0 -5 -4 -10 -10 -10
-5 0 -10 5 -10 10 0 6 5 10 10 10 6 0 10 -4 10 -10z m3320 -14 c0 -2 -8 -10
-17 -17 -16 -13 -17 -12 -4 4 13 16 21 21 21 13z m-3626 -87 c-3 -5 -10 -7
-15 -3 -5 3 -7 10 -3 15 3 5 10 7 15 3 5 -3 7 -10 3 -15z m3529 -2 c-10 -12
-56 -58 -103 -102 -127 -120 -180 -176 -180 -191 0 -8 -15 -20 -32 -28 -18 -8
-62 -44 -98 -80 -35 -36 -68 -66 -72 -66 -4 0 78 84 182 187 172 169 188 188
172 200 -15 13 -14 14 9 9 32 -7 81 27 77 52 -2 10 4 17 14 17 10 0 23 6 30
13 20 20 21 14 1 -11z m-2183 3 c0 -5 -4 -10 -10 -10 -5 0 -10 5 -10 10 0 6 5
10 10 10 6 0 10 -4 10 -10z m-160 -35 c0 -8 -7 -15 -15 -15 -26 0 -18 20 13
29 1 1 2 -6 2 -14z m-130 -5 c0 -5 -5 -10 -11 -10 -5 0 -7 5 -4 10 3 6 8 10
11 10 2 0 4 -4 4 -10z m64 -16 c5 -14 4 -15 -9 -4 -17 14 -19 20 -6 20 5 0 12
-7 15 -16z m186 -4 c0 -5 -4 -10 -10 -10 -5 0 -10 5 -10 10 0 6 5 10 10 10 6
0 10 -4 10 -10z m970 -3 c0 -2 -17 -19 -37 -38 l-38 -34 34 38 c33 34 41 42
41 34z m670 -38 c0 -5 -4 -9 -10 -9 -5 0 -10 7 -10 16 0 8 5 12 10 9 6 -3 10
-10 10 -16z m-120 -22 c0 -2 -12 -14 -27 -28 l-28 -24 24 28 c23 25 31 32 31
24z m190 -11 c0 -3 -62 -60 -137 -127 -76 -68 -192 -172 -258 -233 -103 -94
-109 -99 -45 -32 41 43 141 136 223 208 81 71 147 134 147 139 0 5 6 9 13 9 8
0 22 9 32 20 18 20 25 24 25 16z m-2875 -36 c3 -5 1 -10 -4 -10 -6 0 -11 5
-11 10 0 6 2 10 4 10 3 0 8 -4 11 -10z m2025 7 c0 -2 -10 -12 -22 -23 l-23
-19 19 23 c18 21 26 27 26 19z m554 -28 c-16 -17 -60 -58 -99 -91 -53 -46 -47
-38 25 31 94 90 131 119 74 60z m116 11 c0 -5 -5 -10 -11 -10 -5 0 -7 5 -4 10
3 6 8 10 11 10 2 0 4 -4 4 -10z m-968 -33 l-21 -22 51 -155 c28 -85 53 -157
55 -159 1 -3 15 6 31 20 l27 24 -28 -31 c-22 -24 -27 -37 -21 -58 8 -32 11
-32 43 -4 24 21 24 21 -2 -8 l-27 -30 21 -65 c12 -35 25 -68 30 -73 5 -5 61
38 131 99 68 60 107 91 87 69 -21 -23 -34 -45 -31 -54 4 -12 2 -13 -9 -4 -11
10 -30 -3 -94 -61 l-79 -73 60 -189 60 -188 502 -1 c277 -1 505 -3 507 -6 3
-2 -105 -83 -238 -179 -133 -97 -317 -230 -408 -297 l-167 -122 104 -316 c57
-175 108 -320 115 -324 6 -4 9 -13 5 -18 -4 -6 14 -75 39 -152 26 -78 45 -144
42 -146 -4 -4 -454 315 -560 397 -16 12 -80 59 -143 105 l-114 83 -406 -295
c-224 -162 -409 -293 -411 -290 -3 2 65 219 150 481 l154 476 -161 117 c-88
65 -180 131 -202 148 -166 117 -453 329 -450 331 2 2 146 4 320 4 268 0 318 2
323 14 6 18 60 20 65 3 4 -10 43 -13 153 -13 l148 0 14 40 c8 22 15 49 17 60
1 11 7 31 14 45 6 14 52 153 103 310 50 157 104 322 120 368 16 46 29 86 29
90 0 3 -16 -9 -35 -28 -19 -19 -35 -31 -35 -28 0 8 91 98 100 98 4 0 13 7 20
15 7 8 15 15 18 15 3 0 -4 -10 -16 -23z m818 -43 c-30 -30 -82 -78 -115 -106
-33 -28 -10 -3 50 55 118 114 153 142 65 51z m-670 32 c0 -2 -8 -10 -17 -17
-16 -13 -17 -12 -4 4 13 16 21 21 21 13z m-50 -40 c0 -2 -8 -10 -17 -17 -16
-13 -17 -12 -4 4 13 16 21 21 21 13z m1700 -26 c0 -5 -5 -10 -11 -10 -5 0 -7
5 -4 10 3 6 8 10 11 10 2 0 4 -4 4 -10z m-371 -56 c-15 -18 -28 -18 -36 2 -8
20 17 36 34 22 10 -8 10 -14 2 -24z m-3079 -4 c0 -5 -7 -10 -15 -10 -8 0 -15
5 -15 10 0 6 7 10 15 10 8 0 15 -4 15 -10z m2444 4 c9 -3 16 -13 16 -21 0 -8
5 -11 10 -8 23 14 7 -12 -18 -29 -15 -11 -24 -16 -20 -11 4 4 -3 15 -15 25
-18 15 -19 20 -8 34 15 18 14 18 35 10z m937 -7 c-1 -12 -15 -9 -19 4 -3 6 1
10 8 8 6 -3 11 -8 11 -12z m84 -15 c0 -18 -20 -15 -23 4 -3 10 1 15 10 12 7
-3 13 -10 13 -16z m-850 -32 c-16 -16 -31 -28 -33 -25 -4 4 48 54 57 55 3 0
-8 -13 -24 -30z m875 10 c0 -5 -5 -10 -11 -10 -5 0 -7 5 -4 10 3 6 8 10 11 10
2 0 4 -4 4 -10z m-1564 -9 c-3 -5 -34 -32 -68 -61 l-63 -52 65 61 c64 60 77
70 66 52z m-171 -11 c-3 -5 -11 -10 -16 -10 -6 0 -7 5 -4 10 3 6 11 10 16 10
6 0 7 -4 4 -10z m805 -33 c0 -2 -10 -12 -22 -23 l-23 -19 19 23 c18 21 26 27
26 19z m-1692 -30 c2 -10 -3 -17 -12 -17 -18 0 -29 16 -21 31 9 14 29 6 33
-14z m1016 -36 c3 -4 -7 -19 -22 -32 -23 -21 -24 -21 -8 -2 10 12 15 27 11 32
-3 6 -2 11 4 11 5 0 12 -4 15 -9z m236 -14 c0 -2 -12 -14 -27 -28 l-28 -24 24
28 c23 25 31 32 31 24z m550 -10 c0 -2 -15 -16 -32 -33 l-33 -29 29 33 c28 30
36 37 36 29z m-2375 -37 c3 -5 1 -10 -4 -10 -6 0 -11 5 -11 10 0 6 2 10 4 10
3 0 8 -4 11 -10z m73 -9 c3 -8 -1 -12 -9 -9 -7 2 -15 10 -17 17 -3 8 1 12 9 9
7 -2 15 -10 17 -17z m122 -22 c0 -5 -4 -9 -10 -9 -5 0 -10 7 -10 16 0 8 5 12
10 9 6 -3 10 -10 10 -16z m1626 -14 c2 -21 -1 -24 -12 -14 -11 9 -11 15 -3 25
15 18 14 18 15 -11z m-2386 -5 c0 -5 -5 -10 -11 -10 -5 0 -7 5 -4 10 3 6 8 10
11 10 2 0 4 -4 4 -10z m1586 -15 c2 -25 -11 -35 -18 -14 -2 7 -18 0 -38 -16
-24 -18 -21 -13 9 14 24 23 44 41 45 41 0 0 2 -11 2 -25z m1264 22 c0 -1 -42
-43 -92 -92 l-93 -90 90 93 c83 85 95 97 95 89z m290 -37 c0 -5 -2 -10 -4 -10
-3 0 -8 5 -11 10 -3 6 -1 10 4 10 6 0 11 -4 11 -10z m-2640 -15 c0 -8 -4 -15
-10 -15 -5 0 -10 7 -10 15 0 8 5 15 10 15 6 0 10 -7 10 -15z m2151 -28 c-1
-12 -15 -9 -19 4 -3 6 1 10 8 8 6 -3 11 -8 11 -12z m-1161 -1 c0 -2 -26 -25
-57 -51 l-58 -47 55 51 c54 50 60 55 60 47z m-512 -41 c0 -21 -5 -25 -28 -25
-24 0 -27 3 -22 25 3 18 11 25 27 25 17 0 23 -6 23 -25z m1352 11 c0 -3 -4 -8
-10 -11 -5 -3 -10 -1 -10 4 0 6 5 11 10 11 6 0 10 -2 10 -4z m-719 -20 c-10
-11 -8 -16 6 -24 29 -17 9 -24 -21 -8 l-27 14 23 16 c28 20 34 20 19 2z m793
-10 c-3 -7 2 -16 10 -19 9 -4 16 -14 16 -22 0 -10 5 -13 13 -9 9 6 8 3 -1 -8
-13 -16 -42 -14 -42 2 0 5 -7 15 -15 24 -13 13 -13 16 1 30 19 20 25 20 18 2z
m-54 -6 c0 -5 -7 -10 -16 -10 -8 0 -12 5 -9 10 3 6 10 10 16 10 5 0 9 -4 9
-10z m-1595 -10 c3 -5 1 -10 -4 -10 -6 0 -11 5 -11 10 0 6 2 10 4 10 3 0 8 -4
11 -10z m-405 -15 c0 -8 -7 -15 -15 -15 -16 0 -20 12 -8 23 11 12 23 8 23 -8z
m1020 -8 c0 -2 -12 -14 -27 -28 l-28 -24 24 28 c23 25 31 32 31 24z m1560 -34
c0 -14 -15 -29 -32 -36 -14 -5 -18 -1 -18 18 0 20 5 25 25 25 14 0 25 -3 25
-7z m-1580 -43 c0 -5 -4 -10 -10 -10 -5 0 -10 5 -10 10 0 6 5 10 10 10 6 0 10
-4 10 -10z m2400 0 c0 -5 -2 -10 -4 -10 -3 0 -8 5 -11 10 -3 6 -1 10 4 10 6 0
11 -4 11 -10z m-3270 -16 c0 -8 -4 -12 -10 -9 -5 3 -10 10 -10 16 0 5 5 9 10
9 6 0 10 -7 10 -16z m2140 -44 c0 -5 -4 -10 -10 -10 -5 0 -10 5 -10 10 0 6 5
10 10 10 6 0 10 -4 10 -10z m-1760 -10 c0 -5 -4 -10 -10 -10 -5 0 -10 5 -10
10 0 6 5 10 10 10 6 0 10 -4 10 -10z m1830 -30 c0 -5 -7 -10 -15 -10 -8 0 -15
5 -15 10 0 6 7 10 15 10 8 0 15 -4 15 -10z m-1740 -15 c0 -8 -4 -15 -10 -15
-5 0 -10 7 -10 15 0 8 5 15 10 15 6 0 10 -7 10 -15z m-875 -20 c0 -11 -7 -21
-16 -23 -18 -3 -33 23 -23 39 10 17 39 5 39 -16z m505 5 c0 -5 -2 -10 -4 -10
-3 0 -8 5 -11 10 -3 6 -1 10 4 10 6 0 11 -4 11 -10z m3030 -10 c0 -5 -4 -10
-10 -10 -5 0 -10 5 -10 10 0 6 5 10 10 10 6 0 10 -4 10 -10z m-1330 -40 c0 -9
-31 -23 -37 -17 -2 2 -1 11 3 20 5 15 34 13 34 -3z m-1330 -40 c0 -5 -4 -10
-10 -10 -5 0 -10 5 -10 10 0 6 5 10 10 10 6 0 10 -4 10 -10z m2187 -14 c-7
-14 -14 -23 -16 -20 -2 2 -14 -4 -25 -13 -12 -10 -5 -1 13 20 19 20 36 37 37
37 1 0 -3 -11 -9 -24z m-1947 6 c0 -13 -12 -22 -22 -16 -10 6 -1 24 13 24 5 0
9 -4 9 -8z m1535 -12 c3 -5 1 -10 -4 -10 -6 0 -11 5 -11 10 0 6 2 10 4 10 3 0
8 -4 11 -10z m-2235 -36 c0 -8 -4 -12 -10 -9 -5 3 -10 10 -10 16 0 5 5 9 10 9
6 0 10 -7 10 -16z m40 -34 c0 -5 -4 -10 -10 -10 -5 0 -10 5 -10 10 0 6 5 10
10 10 6 0 10 -4 10 -10z m3000 -76 c0 -8 -4 -12 -10 -9 -5 3 -10 10 -10 16 0
5 5 9 10 9 6 0 10 -7 10 -16z m205 -24 c-5 -8 -11 -8 -17 -2 -6 6 -7 16 -3 22
5 8 11 8 17 2 6 -6 7 -16 3 -22z m-101 -31 c23 -28 9 -43 -27 -30 -30 12 -33
21 -15 39 16 16 21 15 42 -9z m-10 -55 c8 -20 8 -24 -1 -24 -17 0 -35 19 -29
29 10 16 23 14 30 -5z m-654 -64 c0 -5 -4 -10 -10 -10 -5 0 -10 5 -10 10 0 6
5 10 10 10 6 0 10 -4 10 -10z m360 -104 c0 -3 -4 -8 -10 -11 -5 -3 -10 -1 -10
4 0 6 5 11 10 11 6 0 10 -2 10 -4z m-3218 -41 c5 -22 2 -25 -23 -25 -24 0 -29
4 -29 25 0 20 5 25 24 25 17 0 25 -7 28 -25z m3125 -20 c6 -15 7 -27 2 -31 -5
-3 -12 2 -15 11 -4 10 -13 13 -25 10 -23 -8 -24 -2 -3 19 21 22 27 20 41 -9z
m-2489 -72 c-5 -25 -28 -28 -28 -4 0 12 6 21 16 21 9 0 14 -7 12 -17z m197
-12 c7 -12 -12 -24 -25 -16 -11 7 -4 25 10 25 5 0 11 -4 15 -9z m2215 -11 c0
-12 -28 -25 -36 -17 -9 9 6 27 22 27 8 0 14 -5 14 -10z m-380 -20 c0 -5 -4
-10 -10 -10 -5 0 -10 5 -10 10 0 6 5 10 10 10 6 0 10 -4 10 -10z m325 -15 c0
-26 -40 -33 -49 -9 -7 19 10 35 34 31 8 -1 15 -11 15 -22z m600 -25 c3 -5 1
-10 -4 -10 -6 0 -11 5 -11 10 0 6 2 10 4 10 3 0 8 -4 11 -10z m-3217 -33 c2
-10 -3 -17 -12 -17 -10 0 -16 9 -16 21 0 24 23 21 28 -4z m2672 3 c0 -5 -4
-10 -9 -10 -6 0 -13 5 -16 10 -3 6 1 10 9 10 9 0 16 -4 16 -10z m-255 -18 c0
-18 -20 -15 -23 4 -3 10 1 15 10 12 7 -3 13 -10 13 -16z m-2610 -12 c3 -5 2
-10 -4 -10 -5 0 -13 5 -16 10 -3 6 -2 10 4 10 5 0 13 -4 16 -10z m3172 -46 c8
-20 -13 -42 -27 -28 -12 12 -3 44 11 44 5 0 12 -7 16 -16z m-3182 -4 c3 -5 1
-10 -4 -10 -6 0 -11 5 -11 10 0 6 2 10 4 10 3 0 8 -4 11 -10z m-147 -143 c2
-10 -3 -17 -12 -17 -10 0 -16 9 -16 21 0 24 23 21 28 -4z m3072 -7 c0 -5 -5
-10 -11 -10 -5 0 -7 5 -4 10 3 6 8 10 11 10 2 0 4 -4 4 -10z m-1962 -39 c3 -8
-1 -12 -9 -9 -7 2 -15 10 -17 17 -3 8 1 12 9 9 7 -2 15 -10 17 -17z m-870 -44
c4 -20 -25 -34 -39 -20 -14 14 1 45 20 41 9 -2 17 -11 19 -21z m2522 -17 c0
-11 -7 -20 -15 -20 -15 0 -21 21 -8 33 12 13 23 7 23 -13z m585 -70 c-3 -5
-10 -10 -16 -10 -5 0 -9 5 -9 10 0 6 7 10 16 10 8 0 12 -4 9 -10z m-2337 -21
c3 -19 -27 -34 -40 -21 -13 13 2 43 21 40 9 -2 17 -10 19 -19z m2156 6 c-4 -8
-10 -15 -15 -15 -5 0 -9 7 -9 15 0 8 7 15 15 15 9 0 12 -6 9 -15z m-3159 -5
c3 -5 1 -10 -4 -10 -6 0 -11 5 -11 10 0 6 2 10 4 10 3 0 8 -4 11 -10z m310
-20 c3 -6 -1 -13 -10 -16 -19 -8 -30 0 -20 15 8 14 22 14 30 1z m2745 -10 c0
-13 -7 -20 -20 -20 -13 0 -20 7 -20 20 0 13 7 20 20 20 13 0 20 -7 20 -20z
m230 -16 c0 -17 -22 -14 -28 4 -2 7 3 12 12 12 9 0 16 -7 16 -16z m-3210 -4
c0 -5 -4 -10 -10 -10 -5 0 -10 5 -10 10 0 6 5 10 10 10 6 0 10 -4 10 -10z
m3458 -18 c2 -7 -3 -12 -12 -12 -9 0 -16 7 -16 16 0 17 22 14 28 -4z m-1738
-28 c0 -8 -5 -12 -10 -9 -6 4 -8 11 -5 16 9 14 15 11 15 -7z m-1579 -17 c-13
-13 -26 -3 -16 12 3 6 11 8 17 5 6 -4 6 -10 -1 -17z m3354 3 c3 -5 1 -10 -4
-10 -6 0 -11 5 -11 10 0 6 2 10 4 10 3 0 8 -4 11 -10z m-1058 -16 c8 -20 -8
-36 -26 -25 -15 10 -8 41 9 41 6 0 13 -7 17 -16z m223 -18 c0 -3 -4 -8 -10
-11 -5 -3 -10 -1 -10 4 0 6 5 11 10 11 6 0 10 -2 10 -4z m-1225 -26 c3 -5 1
-10 -4 -10 -6 0 -11 5 -11 10 0 6 2 10 4 10 3 0 8 -4 11 -10z m1645 -14 c0
-11 -19 -15 -25 -6 -3 5 1 10 9 10 9 0 16 -2 16 -4z m-2482 -34 c2 -7 -3 -12
-12 -12 -9 0 -16 7 -16 16 0 17 22 14 28 -4z m2482 -47 c0 -18 -5 -25 -20 -25
-20 0 -28 28 -13 43 15 16 33 6 33 -18z m210 -1 c0 -8 -5 -12 -10 -9 -6 4 -8
11 -5 16 9 14 15 11 15 -7z m-2650 -4 c0 -5 -4 -10 -10 -10 -5 0 -10 5 -10 10
0 6 5 10 10 10 6 0 10 -4 10 -10z m1320 -15 c0 -8 -4 -15 -10 -15 -5 0 -10 7
-10 15 0 8 5 15 10 15 6 0 10 -7 10 -15z m1150 -8 c0 -2 -12 -14 -27 -28 l-28
-24 24 28 c23 25 31 32 31 24z m-1880 -67 c0 -5 -7 -10 -16 -10 -8 0 -12 5 -9
10 3 6 10 10 16 10 5 0 9 -4 9 -10z m-910 -15 c0 -8 -4 -15 -9 -15 -13 0 -22
16 -14 24 11 11 23 6 23 -9z m345 -25 c-5 -8 -11 -8 -17 -2 -6 6 -7 16 -3 22
5 8 11 8 17 2 6 -6 7 -16 3 -22z m631 -11 c10 -17 -13 -36 -27 -22 -12 12 -4
33 11 33 5 0 12 -5 16 -11z m1294 -4 c0 -8 -4 -15 -10 -15 -5 0 -10 7 -10 15
0 8 5 15 10 15 6 0 10 -7 10 -15z m90 5 c0 -5 -4 -10 -10 -10 -5 0 -10 5 -10
10 0 6 5 10 10 10 6 0 10 -4 10 -10z m-761 -107 c-15 -18 -34 -1 -25 22 5 14
9 15 21 5 12 -10 13 -16 4 -27z m404 13 c10 -25 -33 -50 -48 -27 -5 10 21 41
35 41 4 0 10 -6 13 -14z m-897 -24 c6 -4 13 -17 17 -30 4 -18 2 -22 -10 -18
-8 3 -21 6 -29 6 -14 0 -20 31 -7 43 8 9 15 9 29 -1z m-986 -22 c0 -5 -4 -10
-10 -10 -5 0 -10 5 -10 10 0 6 5 10 10 10 6 0 10 -4 10 -10z m407 -46 c-9 -9
-28 6 -21 18 4 6 10 6 17 -1 6 -6 8 -13 4 -17z m1293 6 c0 -5 -2 -10 -4 -10
-3 0 -8 5 -11 10 -3 6 -1 10 4 10 6 0 11 -4 11 -10z m600 -10 c0 -5 -4 -10
-10 -10 -5 0 -10 5 -10 10 0 6 5 10 10 10 6 0 10 -4 10 -10z m470 -50 c0 -5
-5 -12 -11 -16 -14 -8 -33 11 -25 25 7 11 36 4 36 -9z m-2460 -40 c0 -5 -7
-10 -15 -10 -8 0 -15 5 -15 10 0 6 7 10 15 10 8 0 15 -4 15 -10z m2006 -26
c-5 -14 -9 -15 -19 -5 -9 9 -9 14 3 21 18 11 24 6 16 -16z m-2816 -44 c0 -5
-2 -10 -4 -10 -3 0 -8 5 -11 10 -3 6 -1 10 4 10 6 0 11 -4 11 -10z m3330 -24
c-13 -13 -35 7 -25 24 5 8 11 8 21 -1 10 -8 12 -15 4 -23z m-3068 1 c12 -19
-4 -37 -33 -37 -24 0 -29 4 -29 23 0 13 3 27 7 30 8 9 46 -2 55 -16z m1878 8
c0 -8 -7 -15 -15 -15 -16 0 -20 12 -8 23 11 12 23 8 23 -8z m-1580 -40 c0 -8
-4 -15 -9 -15 -13 0 -22 16 -14 24 11 11 23 6 23 -9z m2910 5 c0 -5 -2 -10 -4
-10 -3 0 -8 5 -11 10 -3 6 -1 10 4 10 6 0 11 -4 11 -10z m-850 -74 c0 -11 -19
-15 -25 -6 -3 5 1 10 9 10 9 0 16 -2 16 -4z m-90 -36 c0 -5 -4 -10 -10 -10 -5
0 -10 5 -10 10 0 6 5 10 10 10 6 0 10 -4 10 -10z m-35 -10 c3 -5 -1 -10 -9
-10 -9 0 -16 5 -16 10 0 6 4 10 9 10 6 0 13 -4 16 -10z m-2507 -17 c5 -17 -26
-29 -40 -15 -6 6 -7 15 -3 22 9 14 37 9 43 -7z m572 -38 c0 -8 -7 -15 -15 -15
-16 0 -20 12 -8 23 11 12 23 8 23 -8z m1710 -45 c0 -5 -2 -10 -4 -10 -3 0 -8
5 -11 10 -3 6 -1 10 4 10 6 0 11 -4 11 -10z m-1520 -40 c0 -11 -6 -20 -14 -20
-8 0 -16 -5 -18 -11 -2 -7 -10 -10 -17 -8 -9 3 -6 12 9 32 25 32 40 35 40 7z
m1565 -88 c6 -4 16 -20 23 -36 11 -24 11 -28 -2 -23 -9 4 -18 2 -22 -4 -4 -7
-10 -6 -18 0 -7 6 -16 8 -19 4 -4 -3 -7 8 -7 25 0 26 9 38 30 41 3 0 10 -3 15
-7z m-600 -11 c7 -12 -12 -24 -25 -16 -11 7 -4 25 10 25 5 0 11 -4 15 -9z
m-1755 -71 c0 -5 -4 -10 -10 -10 -5 0 -10 5 -10 10 0 6 5 10 10 10 6 0 10 -4
10 -10z"/>
</g>
</svg>
